<svg width="1060" height="424" viewBox="0 0 1060 424" fill="none" xmlns="http://www.w3.org/2000/svg">
<path fill-rule="evenodd" clip-rule="evenodd" d="M285.069 22.089C293.237 8.68168 307.801 0.5 323.5 0.5H425.75H470.75V90.5H425.75H397.371L414.003 122.721L334.029 164.003L313.388 124.016L283.513 66.1411C276.312 52.191 276.902 35.4963 285.069 22.089ZM585.25 0.5H630.25H732.5C749.003 0.5 764.181 9.53292 772.052 24.0376C779.923 38.5423 779.223 56.1916 770.228 70.0273L732.603 127.902L708.076 165.63L632.62 116.576L649.572 90.5H630.25H585.25V0.5ZM664.928 232L681.88 205.924L606.424 156.87L581.897 194.598L544.272 252.473C535.277 266.308 534.577 283.958 542.448 298.462C550.319 312.967 565.497 322 582 322H712.375H757.375V232H712.375H664.928ZM432.471 158.497L453.112 198.484L482.987 256.359C490.188 270.309 489.598 287.004 481.431 300.411C473.263 313.818 458.699 322 443 322H343.5H298.5V232H343.5H369.129L352.497 199.779L432.471 158.497ZM0 277C0 252.147 20.1472 232 45 232H144.5H189.5V322H144.5H90V342.25V358.75V387.25V424H0V387.25V358.75V342.25V313.75V277ZM928.125 232H973.125H1103.5V322H973.125H928.125V232Z" fill="url(#paint0_linear_319_8)" fill-opacity="0.32"/>
<defs>
<linearGradient id="paint0_linear_319_8" x1="23.522" y1="-184.117" x2="774.812" y2="468.868" gradientUnits="userSpaceOnUse">
<stop stop-color="#F78C26"/>
<stop offset="0.5" stop-color="#E83894"/>
<stop offset="1" stop-color="#5672EA"/>
</linearGradient>
</defs>
</svg>
