<svg width="1897" height="727" viewBox="0 0 1897 727" fill="none" xmlns="http://www.w3.org/2000/svg">
<path fill-rule="evenodd" clip-rule="evenodd" d="M0.5 59.875V0H90.5V59.875V104.875H0.5V59.875ZM531.052 48.3131C539.718 39.846 551.432 35.231 563.544 35.5121L692.794 38.5121L737.782 39.5563L735.694 129.532L690.706 128.488L607.5 126.557V155.688V200.688H517.5V155.688V80.5C517.5 68.3842 522.386 56.7803 531.052 48.3131ZM906.306 43.4679L951.294 44.5121L1080.02 47.5H1185.56H1230.56V137.5H1185.56H1079.5C1079.15 137.5 1078.8 137.496 1078.46 137.488L949.206 134.488L904.218 133.444L906.306 43.4679ZM1352.69 47.5H1397.69H1609.81H1654.81V137.5H1609.81H1397.69H1352.69V47.5ZM1776.94 47.5H1821.94H1928V137.5H1821.94H1776.94V47.5ZM90.5 134.625V179.625V194.5H100.875H145.875V284.5H100.875H45.5C20.6472 284.5 0.5 264.353 0.5 239.5V179.625V134.625H90.5ZM166.625 194.5H211.625H267C291.853 194.5 312 214.647 312 239.5V300.75V345.75H222V300.75V284.5H211.625H166.625V194.5ZM607.5 261.062V306.062V456.438V501.438H517.5V456.438V306.062V261.062H607.5ZM312 378.25V423.25V484.5C312 509.353 291.853 529.5 267 529.5H211.625H166.625V439.5H211.625H222V423.25V378.25H312ZM0.5 484.5C0.5 459.647 20.6472 439.5 45.5 439.5H100.875H145.875V529.5H100.875H90.5V533.875V578.875H0.5V533.875V484.5ZM607.5 561.812V606.812V682C607.5 706.853 587.353 727 562.5 727H488.625H443.625V637H488.625H517.5V606.812V561.812H607.5ZM90.5 587.625V632.625V637H100.875H145.875V727H100.875H45.5C20.6472 727 0.5 706.853 0.5 682V632.625V587.625H90.5ZM166.625 637H211.625H267H340.875H385.875V727H340.875H267H211.625H166.625V637Z" fill="url(#paint0_linear_299_2)" fill-opacity="0.32"/>
<defs>
<linearGradient id="paint0_linear_299_2" x1="-52.6787" y1="527.944" x2="1011.83" y2="1023.6" gradientUnits="userSpaceOnUse">
<stop stop-color="#F78C26"/>
<stop offset="0.5" stop-color="#E83894"/>
<stop offset="1" stop-color="#5672EA"/>
</linearGradient>
</defs>
</svg>
