<svg width="355" height="1119" viewBox="0 0 355 1119" fill="none" xmlns="http://www.w3.org/2000/svg">
<path fill-rule="evenodd" clip-rule="evenodd" d="M2.15479 109.262L-48.0952 74.5118L3.09538 0.488037L53.3454 35.238L90.3573 60.8333L39.1667 134.857L2.15479 109.262ZM116.833 79.1427L153.845 104.738L204.095 139.488C216.96 148.385 224.282 163.323 223.434 178.941L217.559 287.066L215.117 332L125.25 327.117L127.691 282.183L132.201 199.194L102.655 178.762L65.6429 153.167L116.833 79.1427ZM208.25 458.383L205.809 503.316L200.775 595.967L230.534 638.631L256.278 675.539L182.461 727.028L156.717 690.119L118.092 634.744C112.346 626.508 109.522 616.586 110.066 606.558L115.941 498.433L118.383 453.5L208.25 458.383ZM282.039 712.472L307.784 749.381L346.409 804.756C351.676 812.307 354.5 821.293 354.5 830.5V902.625V947.625H264.5V902.625V844.644L233.967 800.869L208.222 763.961L282.039 712.472ZM354.5 1001.87V1046.88V1119H264.5V1046.88V1001.87H354.5Z" fill="url(#paint0_linear_319_12)" fill-opacity="0.32"/>
<defs>
<linearGradient id="paint0_linear_319_12" x1="-23.7663" y1="316.443" x2="674.706" y2="1080.4" gradientUnits="userSpaceOnUse">
<stop stop-color="#F78C26"/>
<stop offset="0.5" stop-color="#E83894"/>
<stop offset="1" stop-color="#5672EA"/>
</linearGradient>
</defs>
</svg>
