<svg width="675" height="577" viewBox="0 0 675 577" fill="none" xmlns="http://www.w3.org/2000/svg">
<path fill-rule="evenodd" clip-rule="evenodd" d="M66.8589 136.623L0.983887 57.8729L70.0159 0.127083L135.891 78.8771L164.764 113.393L95.7318 171.139L66.8589 136.623ZM523.885 108.53C537.037 110.566 548.613 118.32 555.502 129.706L616.002 229.706L639.296 268.208L562.292 314.796L538.998 276.294L506.282 222.219L492.155 234.597L458.308 264.251L398.998 196.558L432.845 166.903L487.345 119.153C497.355 110.383 510.734 106.494 523.885 108.53ZM238.768 201.861L267.641 236.377L303.975 279.813L323.845 262.403L357.692 232.749L417.001 300.442L383.155 330.097L328.655 377.847C319.544 385.829 307.599 389.802 295.522 388.865C283.445 387.929 272.256 382.164 264.484 372.873L198.609 294.123L169.736 259.607L238.768 201.861ZM713.708 391.204L737.002 429.706L797.502 529.706L720.498 576.294L659.998 476.294L636.704 437.792L713.708 391.204Z" fill="url(#paint0_linear_327_5)" fill-opacity="0.32"/>
<defs>
<linearGradient id="paint0_linear_327_5" x1="-41.3324" y1="97.9875" x2="702.511" y2="792.73" gradientUnits="userSpaceOnUse">
<stop stop-color="#F78C26"/>
<stop offset="0.5" stop-color="#E83894"/>
<stop offset="1" stop-color="#5672EA"/>
</linearGradient>
</defs>
</svg>
