<svg width="999" height="727" viewBox="0 0 999 727" fill="none" xmlns="http://www.w3.org/2000/svg">
<path fill-rule="evenodd" clip-rule="evenodd" d="M-54.5 45.5C-54.5 20.6472 -34.3528 0.5 -9.5 0.5H70H115V90.5H70H35.5V109.5V154.5H-54.5V109.5V45.5ZM184 0.5H229H308.5C323.301 0.5 337.156 7.77859 345.555 19.9665C353.953 32.1544 355.821 47.6929 350.55 61.524L330.925 113.024L314.901 155.074L230.801 123.026L243.195 90.5H229H184V0.5ZM292.44 214.018L307.699 173.974L223.599 141.926L207.575 183.976L187.95 235.476C183.033 248.378 184.312 262.823 191.418 274.661C198.524 286.499 210.671 294.419 224.37 296.146L323.495 308.646L368.141 314.276L379.401 224.984L334.755 219.354L292.44 214.018ZM35.5 192.5V237.5V301.5C35.5 326.353 15.3528 346.5 -9.5 346.5H-18.875H-27.625H-63.875H-72.625H-82V256.5H-72.625H-63.875H-54.5V237.5V192.5H35.5ZM488.359 238.724L533.005 244.354L632.13 256.854C654.628 259.691 671.5 278.824 671.5 301.5V349.5V394.5H581.5V349.5V341.182L521.745 333.646L477.099 328.016L488.359 238.724ZM671.5 400.5V445.5V448.5H708.25H753.25V538.5H708.25H626.5C601.647 538.5 581.5 518.353 581.5 493.5V445.5V400.5H671.5ZM826.75 448.5H871.75H953.5C978.353 448.5 998.5 468.647 998.5 493.5V551.75V596.75H908.5V551.75V538.5H871.75H826.75V448.5ZM998.5 623.25V668.25V726.5H908.5V668.25V623.25H998.5Z" fill="url(#paint0_linear_319_13)" fill-opacity="0.32"/>
<defs>
<linearGradient id="paint0_linear_319_13" x1="1.02047" y1="-59.7334" x2="720.919" y2="597.558" gradientUnits="userSpaceOnUse">
<stop stop-color="#F78C26"/>
<stop offset="0.5" stop-color="#E83894"/>
<stop offset="1" stop-color="#5672EA"/>
</linearGradient>
</defs>
</svg>
