<svg width="890" height="452" viewBox="0 0 890 452" fill="none" xmlns="http://www.w3.org/2000/svg">
<path fill-rule="evenodd" clip-rule="evenodd" d="M172.793 37.8492L224.043 0.599197L276.957 73.4008L225.707 110.651L189.306 137.108L136.392 64.3064L172.793 37.8492ZM147.839 142.501L106.694 85.892L70.2929 112.349L19.0429 149.599C3.37302 160.989 -3.24955 181.128 2.60263 199.594C8.45481 218.061 25.4683 230.71 44.8378 230.995L121.275 232.12L166.27 232.782L167.595 142.792L147.839 142.501ZM230.48 143.718L275.475 144.38L428.35 146.63L473.345 147.292L472.02 237.282L427.025 236.62L274.15 234.37L229.155 233.708L230.48 143.718ZM536.23 148.218L581.225 148.88L657.662 150.005C674.268 150.249 689.39 159.62 696.999 174.382L721.999 222.882L742.617 262.881L662.619 304.117L642.001 264.118L629.362 239.598L579.9 238.87L534.905 238.208L536.23 148.218ZM751.381 279.883L771.999 319.882L785.635 346.336L812.302 348.672L857.13 352.598L849.277 442.255L804.448 438.328L753.073 433.828C737.692 432.481 724.076 423.342 717.001 409.618L692.001 361.118L671.383 321.119L751.381 279.883ZM870.223 353.745L915.052 357.672L966.427 362.172L958.573 451.828L907.198 447.328L862.37 443.402L870.223 353.745Z" fill="url(#paint0_linear_327_7)" fill-opacity="0.32"/>
<defs>
<linearGradient id="paint0_linear_327_7" x1="175.947" y1="109.138" x2="983.957" y2="760.166" gradientUnits="userSpaceOnUse">
<stop stop-color="#F78C26"/>
<stop offset="0.5" stop-color="#E83894"/>
<stop offset="1" stop-color="#5672EA"/>
</linearGradient>
</defs>
</svg>
