<svg width="39" height="31" viewBox="0 0 39 31" fill="none" xmlns="http://www.w3.org/2000/svg">
<path d="M4.3835 31C3.33649 31 2.44018 30.6206 1.69458 29.8617C0.948973 29.1029 0.576172 28.1906 0.576172 27.125V3.875C0.576172 2.80937 0.948973 1.89714 1.69458 1.13828C2.44018 0.379427 3.33649 0 4.3835 0H34.8421C35.8892 0 36.7855 0.379427 37.5311 1.13828C38.2767 1.89714 38.6495 2.80937 38.6495 3.875V27.125C38.6495 28.1906 38.2767 29.1029 37.5311 29.8617C36.7855 30.6206 35.8892 31 34.8421 31H4.3835ZM19.6128 17.4375L4.3835 7.75V27.125H34.8421V7.75L19.6128 17.4375ZM19.6128 13.5625L34.8421 3.875H4.3835L19.6128 13.5625ZM4.3835 7.75V3.875V27.125V7.75Z" fill="url(#paint0_linear_166_1278)"/>
<defs>
<linearGradient id="paint0_linear_166_1278" x1="19.6128" y1="0" x2="19.6128" y2="31" gradientUnits="userSpaceOnUse">
<stop stop-color="#F78A29"/>
<stop offset="0.5" stop-color="#EC4D78"/>
<stop offset="0.75" stop-color="#C944A7"/>
<stop offset="1" stop-color="#666CE1"/>
</linearGradient>
</defs>
</svg>
