<svg width="27" height="36" viewBox="0 0 27 36" fill="none" xmlns="http://www.w3.org/2000/svg">
<path d="M3.7284 36C2.82233 36 2.04668 35.6643 1.40144 34.9929C0.75621 34.3214 0.433594 33.5143 0.433594 32.5714V15.4286C0.433594 14.4857 0.75621 13.6786 1.40144 13.0071C2.04668 12.3357 2.82233 12 3.7284 12H5.3758V8.57143C5.3758 6.2 6.17891 4.17857 7.78513 2.50714C9.39135 0.835714 11.3339 0 13.6128 0C15.8917 0 17.8343 0.835714 19.4405 2.50714C21.0467 4.17857 21.8498 6.2 21.8498 8.57143V12H23.4972C24.4033 12 25.179 12.3357 25.8242 13.0071C26.4694 13.6786 26.792 14.4857 26.792 15.4286V32.5714C26.792 33.5143 26.4694 34.3214 25.8242 34.9929C25.179 35.6643 24.4033 36 23.4972 36H3.7284ZM3.7284 32.5714H23.4972V15.4286H3.7284V32.5714ZM13.6128 27.4286C14.5189 27.4286 15.2945 27.0929 15.9398 26.4214C16.585 25.75 16.9076 24.9429 16.9076 24C16.9076 23.0571 16.585 22.25 15.9398 21.5786C15.2945 20.9071 14.5189 20.5714 13.6128 20.5714C12.7067 20.5714 11.9311 20.9071 11.2859 21.5786C10.6406 22.25 10.318 23.0571 10.318 24C10.318 24.9429 10.6406 25.75 11.2859 26.4214C11.9311 27.0929 12.7067 27.4286 13.6128 27.4286ZM8.67061 12H18.555V8.57143C18.555 7.14286 18.0745 5.92857 17.1135 4.92857C16.1526 3.92857 14.9857 3.42857 13.6128 3.42857C12.24 3.42857 11.0731 3.92857 10.1121 4.92857C9.1511 5.92857 8.67061 7.14286 8.67061 8.57143V12Z" fill="url(#paint0_linear_166_1274)"/>
<defs>
<linearGradient id="paint0_linear_166_1274" x1="13.6128" y1="0" x2="13.6128" y2="36" gradientUnits="userSpaceOnUse">
<stop stop-color="#F78A29"/>
<stop offset="0.5" stop-color="#EC4D78"/>
<stop offset="0.75" stop-color="#C944A7"/>
<stop offset="1" stop-color="#666CE1"/>
</linearGradient>
</defs>
</svg>
