<svg width="677" height="391" viewBox="0 0 677 391" fill="none" xmlns="http://www.w3.org/2000/svg">
<path fill-rule="evenodd" clip-rule="evenodd" d="M-62.5068 92.1576L-90.3818 52.2826L-16.6184 0.717529L11.2566 40.5925L37.0391 77.4743L-36.7243 129.039L-62.5068 92.1576ZM41.2241 83.4608L67.0066 120.343L81.4474 141H124.25H169.25V231H124.25H57.9999C43.3057 231 29.5371 223.826 21.1182 211.783L-6.75684 171.908L-32.5394 135.026L41.2241 83.4608ZM211.75 141H256.75H323C347.853 141 368 161.147 368 186V220.25V243.75V265.25V280.792L413.629 283.717L458.536 286.596L452.779 376.412L407.871 373.533L320.121 367.908C296.435 366.39 278 346.735 278 323V288.75V265.25V243.75V231H256.75H211.75V141ZM544.221 292.089L589.129 294.967L676.879 300.592L671.121 390.408L583.371 384.783L538.463 381.904L544.221 292.089Z" fill="url(#paint0_linear_319_14)" fill-opacity="0.32"/>
<defs>
<linearGradient id="paint0_linear_319_14" x1="-22.2904" y1="-232.608" x2="787.006" y2="419.157" gradientUnits="userSpaceOnUse">
<stop stop-color="#F78C26"/>
<stop offset="0.5" stop-color="#E83894"/>
<stop offset="1" stop-color="#5672EA"/>
</linearGradient>
</defs>
</svg>
