<svg width="498" height="437" viewBox="0 0 498 437" fill="none" xmlns="http://www.w3.org/2000/svg">
<path fill-rule="evenodd" clip-rule="evenodd" d="M33.9629 98.7309L0.462891 55.6059L71.5379 0.394073L105.038 43.5191L132.644 79.0566L61.5688 134.268L33.9629 98.7309ZM144.432 94.2316L172.038 129.769L188.734 151.263L204.302 148.378L245.055 140.827L248.549 140.179L289.302 132.628L331.802 124.753C343.564 122.574 355.71 125.167 365.556 131.961C375.402 138.754 382.139 149.189 384.276 160.959L394.401 216.709L402.442 260.985L313.891 277.067L305.85 232.791L303.794 221.475L264.946 228.673L261.452 229.321L220.699 236.872L178.199 244.747C161.656 247.812 144.784 241.393 134.463 228.106L100.963 184.981L73.357 149.443L144.432 94.2316ZM611.28 347.754L557.78 369.254L516.026 386.034L482.466 302.525L524.221 285.746L577.721 264.246L611.28 347.754ZM406.61 283.933L414.651 328.209L414.917 329.671L417.221 328.746L458.975 311.966L492.535 395.475L450.78 412.254L397.28 433.754C384.734 438.796 370.585 437.93 358.748 431.393C346.911 424.857 338.641 413.345 336.225 400.041L326.1 344.291L318.059 300.015L406.61 283.933Z" fill="url(#paint0_linear_327_4)" fill-opacity="0.32"/>
<defs>
<linearGradient id="paint0_linear_327_4" x1="-235.702" y1="127.538" x2="567.084" y2="810.351" gradientUnits="userSpaceOnUse">
<stop stop-color="#F78C26"/>
<stop offset="0.5" stop-color="#E83894"/>
<stop offset="1" stop-color="#5672EA"/>
</linearGradient>
</defs>
</svg>
